<svg id="water" xmlns="http://www.w3.org/2000/svg" width="19.783" height="25.637" viewBox="0 0 19.783 25.637">
  <g id="Group_10923" data-name="Group 10923" transform="translate(0)">
    <path id="Path_3101" data-name="Path 3101" d="M60.317.4a1.065,1.065,0,0,0-.808-.4H41.879a1.065,1.065,0,0,0-.808.4,1.028,1.028,0,0,0-.257.845l3.122,23.433a1.139,1.139,0,0,0,1.1.955H56.35a1.139,1.139,0,0,0,1.1-.955L60.574,1.249A1.028,1.028,0,0,0,60.317.4Zm-3.159,9.807-.918-.367a6.541,6.541,0,0,0-6.024,0,4.224,4.224,0,0,1-2.057.477A4.334,4.334,0,0,1,46.1,9.843a5.4,5.4,0,0,0-2.02-.661L43.165,2.2H58.223Z" transform="translate(-40.803)" fill="#f5f2f5"/>
  </g>
</svg>
