<svg id="drop" xmlns="http://www.w3.org/2000/svg" width="21.531" height="30" viewBox="0 0 21.531 30">
  <g id="Group_10849" data-name="Group 10849" transform="translate(0 0)">
    <path id="Path_3076" data-name="Path 3076" d="M47.3,1.034c-.824-1.4-1.7-1.354-2.522,0-3.783,5.609-9.5,14.024-9.5,18.231a10.766,10.766,0,0,0,21.531,0C56.806,15.009,51.084,6.644,47.3,1.034Zm6.5,23.018A9.2,9.2,0,0,1,50.55,27.2a1.3,1.3,0,0,1-1.261-2.273A6.411,6.411,0,0,0,51.617,22.7a6.292,6.292,0,0,0,.97-3.095,1.287,1.287,0,0,1,2.57.145A9.561,9.561,0,0,1,53.8,24.052Z" transform="translate(-35.275 0)" fill="#9393af"/>
  </g>
</svg>
