<svg id="drug" xmlns="http://www.w3.org/2000/svg" width="30" height="30" viewBox="0 0 30 30">
  <g id="Group_10851" data-name="Group 10851" transform="translate(9.959 0)">
    <g id="Group_10850" data-name="Group 10850">
      <path id="Path_3077" data-name="Path 3077" d="M187.638,2.313a7.928,7.928,0,0,0-11.2,0L169.915,8.84l7.41,7.41a8.66,8.66,0,0,1,9.044-1.357l1.268-1.385A7.926,7.926,0,0,0,187.638,2.313Z" transform="translate(-169.915 0.001)" fill="#9393af"/>
    </g>
  </g>
  <g id="Group_10853" data-name="Group 10853" transform="translate(0 10.067)">
    <g id="Group_10852" data-name="Group 10852">
      <path id="Path_3078" data-name="Path 3078" d="M16.386,179.429l-7.421-7.421L2.577,178.4a7.958,7.958,0,0,0,11.254,11.254l1.3-1.3a8.658,8.658,0,0,1,1.26-8.927Z" transform="translate(-0.263 -172.008)" fill="#9393af"/>
    </g>
  </g>
  <g id="Group_10855" data-name="Group 10855" transform="translate(15.923 16.016)">
    <g id="Group_10854" data-name="Group 10854">
      <path id="Path_3079" data-name="Path 3079" d="M271.7,280.426a7.014,7.014,0,0,0,6.157,6.948v-13.9A7.014,7.014,0,0,0,271.7,280.426Z" transform="translate(-271.703 -273.478)" fill="#9393af"/>
    </g>
  </g>
  <g id="Group_10857" data-name="Group 10857" transform="translate(23.843 16.016)">
    <g id="Group_10856" data-name="Group 10856">
      <path id="Path_3080" data-name="Path 3080" d="M406.722,273.478v13.9a7,7,0,0,0,0-13.9Z" transform="translate(-406.722 -273.478)" fill="#9393af"/>
    </g>
  </g>
</svg>
