<svg xmlns="http://www.w3.org/2000/svg" width="20" height="20.001" viewBox="0 0 20 20.001">
  <path id="Fill_1009" data-name="Fill 1009" d="M4.664,20H.9a.9.9,0,0,1-.9-.9V15.336a2.685,2.685,0,0,1,.793-1.914L13.423.792a2.706,2.706,0,0,1,3.826,0l1.96,1.959a2.71,2.71,0,0,1,0,3.827L6.579,19.208A2.694,2.694,0,0,1,4.664,20ZM11.727,5.038h0L2.069,14.7a.9.9,0,0,0-.264.638V18.2h2.86a.9.9,0,0,0,.639-.264l9.659-9.659L11.727,5.038ZM15.336,1.8a.9.9,0,0,0-.638.264L13,3.763,16.238,7l1.7-1.7a.9.9,0,0,0,0-1.275l-1.96-1.96A.9.9,0,0,0,15.336,1.8Z" transform="translate(0 0)" fill="#fff"/>
</svg>
