<svg xmlns="http://www.w3.org/2000/svg" width="36.872" height="36.624" viewBox="0 0 36.872 36.624">
  <g id="fat_2_" data-name="fat (2)" transform="translate(0.424 0.3)">
    <g id="Group_58" data-name="Group 58" transform="translate(7.038)">
      <g id="Group_57" data-name="Group 57">
        <path id="Path_95" data-name="Path 95" d="M120.747,5.687a6.386,6.386,0,0,0-4.575-2.651L114.654,0h-7.308l-1.518,3.035a6.466,6.466,0,0,0-5.488,8.4l0,0a12.46,12.46,0,0,1,4.927-4.494l.953,1.884a10.312,10.312,0,0,0-3.374,15.683c.593.3,3.183,1.457,8.151,1.457a21.168,21.168,0,0,0,6.4-.894,10.54,10.54,0,0,0,1.948-.813,10.313,10.313,0,0,0-3.57-15.434l.953-1.884a12.461,12.461,0,0,1,4.927,4.494l0,0A6.394,6.394,0,0,0,120.747,5.687Zm-8.692,16.383h-2.111V19.959h2.111Z" transform="translate(-100.026)" fill="rgba(44,46,111,0)" stroke="#ddb925" stroke-width="0.6"/>
      </g>
    </g>
    <g id="Group_60" data-name="Group 60" transform="translate(9.07 26.354)">
      <g id="Group_59" data-name="Group 59">
        <path id="Path_96" data-name="Path 96" d="M146.8,384.23l-.056-9.67a20.508,20.508,0,0,1-8.886,1.72,25.211,25.211,0,0,1-7.017-.885,12.793,12.793,0,0,1-1.87-.692l-.055,9.527H136.8v-5.254h2.111v5.254Z" transform="translate(-128.913 -374.56)" fill="rgba(44,46,111,0)" stroke="#ddb925" stroke-width="0.6"/>
      </g>
    </g>
    <g id="Group_62" data-name="Group 62" transform="translate(0 14.275)">
      <g id="Group_61" data-name="Group 61">
        <path id="Path_97" data-name="Path 97" d="M1.493,202.891,0,204.384l2.244,2.244L0,208.872l1.493,1.493,3.737-3.737Z" transform="translate(0 -202.891)" fill="rgba(44,46,111,0)" stroke="#ddb925" stroke-width="0.6"/>
      </g>
    </g>
    <g id="Group_64" data-name="Group 64" transform="translate(30.795 14.275)">
      <g id="Group_63" data-name="Group 63">
        <path id="Path_98" data-name="Path 98" d="M442.907,204.384l-1.493-1.493-3.737,3.737,3.737,3.737,1.493-1.493-2.244-2.244Z" transform="translate(-437.678 -202.891)" fill="rgba(44,46,111,0)" stroke="#ddb925" stroke-width="0.6"/>
      </g>
    </g>
  </g>
</svg>
