<svg xmlns="http://www.w3.org/2000/svg" width="25.246" height="26.935" viewBox="0 0 25.246 26.935">
  <g id="icon_1_" data-name="icon (1)" transform="translate(-15.054 0.5)">
    <g id="Group_10008" data-name="Group 10008" transform="translate(15.561)">
      <path id="Path_2394" data-name="Path 2394" d="M18.389,138.848V143.5a1.33,1.33,0,0,0,1.33,1.33h.2a1.33,1.33,0,0,0,1.33-1.33v-4.655h1.132V143.5a1.33,1.33,0,0,0,1.33,1.33h.2a1.33,1.33,0,0,0,1.33-1.33v-4.655h.591a1.33,1.33,0,0,0,1.33-1.33l-.254-1.145c.884-.242.624-.665.624-.665s-2-8.387-2.143-9.088a1.164,1.164,0,0,0-.839-.858v0a4.194,4.194,0,0,1-5.708,0l-.016.07.012-.062a1.163,1.163,0,0,0-.861.837c-.166.7-2.371,9.032-2.371,9.032s-.324.5.874.748l-.253,1.136a1.33,1.33,0,0,0,1.33,1.33Z" transform="translate(-15.561 -118.898)" fill="rgba(1,0,2,0)" stroke="#707070" stroke-width="1" stroke-dasharray="2 0"/>
      <path id="Path_2395" data-name="Path 2395" d="M59.845,6.323a3.762,3.762,0,1,0-1.006-2.555A3.755,3.755,0,0,0,59.845,6.323Z" transform="translate(-56.479)" fill="rgba(1,0,2,0)" stroke="#707070" stroke-width="1" stroke-dasharray="2 0"/>
      <path id="Path_2396" data-name="Path 2396" d="M272.756,124.442l-.012.011a4.186,4.186,0,0,1-5.822,0l-.015-.014c-.016,0-.027-.007-.044-.007a3.074,3.074,0,0,0-2.442,2.608v7.812a1.437,1.437,0,0,0,1.555,1.278c.044,0,.085-.008.128-.011a1.308,1.308,0,0,0,.022.218,1.126,1.126,0,0,0-.024.206v5.375a1.444,1.444,0,0,0,1.536,1.33h.229a1.444,1.444,0,0,0,1.536-1.33v-4.489h.86v4.6a1.432,1.432,0,0,0,1.516,1.33H272a1.432,1.432,0,0,0,1.516-1.33v-5.376a1.152,1.152,0,0,0-.02-.171,1.3,1.3,0,0,0,.06-.356,1.43,1.43,0,0,0,1.524-1.275V127.04A3.117,3.117,0,0,0,272.756,124.442Z" transform="translate(-250.847 -117.645)" fill="rgba(1,0,2,0)" stroke="#707070" stroke-width="1" stroke-dasharray="2 0"/>
      <path id="Path_2397" data-name="Path 2397" d="M295.981,6.706a3.765,3.765,0,1,0-1.413-2.937A3.75,3.75,0,0,0,295.981,6.706Z" transform="translate(-279.351)" fill="rgba(1,0,2,0)" stroke="#707070" stroke-width="1" stroke-dasharray="2 0"/>
    </g>
  </g>
</svg>
