<svg xmlns="http://www.w3.org/2000/svg" width="29.75" height="29.921" viewBox="0 0 29.75 29.921">
  <g id="run" transform="translate(-0.387)">
    <path id="Path_3071" data-name="Path 3071" d="M2.885,280a2.5,2.5,0,0,1-1.768-4.266l8.838-8.838a.5.5,0,0,1,.707,0l2.828,2.828a.5.5,0,0,1,0,.707l-8.838,8.838A2.494,2.494,0,0,1,2.885,280Z" transform="translate(0 -250.075)" fill="#9393af"/>
    <path id="Path_3072" data-name="Path 3072" d="M90.948,51.686a2.5,2.5,0,0,1-1.765-4.268l5.04-5.047a3.5,3.5,0,0,1,4.95,0l2.544,2.55a2.5,2.5,0,0,1-3.531,3.538L96.7,46.969l-3.986,3.986a2.49,2.49,0,0,1-1.764.73Zm5.75-9.339" transform="translate(-82.56 -38.763)" fill="#9393af"/>
    <path id="Path_3073" data-name="Path 3073" d="M308.832,170.107h-6.914a1.5,1.5,0,0,1-1.5-1.5v-2a.5.5,0,0,1,.146-.354l2.647-2.646a1,1,0,0,1,1.707.707v.793h4a2.5,2.5,0,0,1,2.488,2.742A2.565,2.565,0,0,1,308.832,170.107Z" transform="translate(-281.281 -153.109)" fill="#9393af"/>
    <path id="Path_3074" data-name="Path 3074" d="M186.934,236.6a2.5,2.5,0,0,1-1.765-4.269L188.6,228.9l-3.073-3.07a2.5,2.5,0,1,1,3.5-3.572l4.17,4.17a3.5,3.5,0,0,1,0,4.95l-4.5,4.5a2.481,2.481,0,0,1-1.761.727Z" transform="translate(-172.547 -207.682)" fill="#9393af"/>
    <path id="Path_3075" data-name="Path 3075" d="M336.918,9a4.5,4.5,0,1,1,4.5-4.5A4.5,4.5,0,0,1,336.918,9Z" transform="translate(-311.281)" fill="#9393af"/>
  </g>
</svg>
