<svg xmlns="http://www.w3.org/2000/svg" width="30.44" height="30.44" viewBox="0 0 30.44 30.44">
  <g id="icon" transform="translate(0.5 0.5)">
    <path id="Path_93" data-name="Path 93" d="M23.92,0H5.52A5.519,5.519,0,0,0,0,5.52v18.4a5.519,5.519,0,0,0,5.52,5.52h18.4a5.519,5.519,0,0,0,5.52-5.52V5.52A5.519,5.519,0,0,0,23.92,0ZM20.381,13.588H9.058L4.529,7.926A13.13,13.13,0,0,1,14.72,3.4,13.13,13.13,0,0,1,24.91,7.926Z" fill="rgba(112,112,112,0)" stroke="#9053a7" stroke-width="1"/>
    <path id="Path_94" data-name="Path 94" d="M16.4,12.209l1.783-7.2-5.161,7.2Z" transform="translate(0.532 0.476)" fill="rgba(112,112,112,0)" stroke="#9053a7" stroke-width="1"/>
  </g>
</svg>
