<svg xmlns="http://www.w3.org/2000/svg" width="41.538" height="41.777" viewBox="0 0 41.538 41.777">
  <g id="run" transform="translate(-0.387)" opacity="0.642">
    <path id="Path_3071" data-name="Path 3071" d="M3.876,285.247a3.49,3.49,0,0,1-2.468-5.957l12.34-12.34a.7.7,0,0,1,.987,0l3.949,3.949a.7.7,0,0,1,0,.987l-12.34,12.34a3.481,3.481,0,0,1-2.468,1.021ZM14.241,268.43,2.395,280.277a2.094,2.094,0,0,0,2.961,2.962L17.2,271.392Zm0,0" transform="translate(0 -243.47)" fill="#14123d"/>
    <path id="Path_3072" data-name="Path 3072" d="M91.938,55.782a3.49,3.49,0,0,1-2.464-5.959l7.036-7.047a4.891,4.891,0,0,1,6.911,0l3.552,3.56a3.489,3.489,0,0,1-4.93,4.94L99.966,49.2,94.4,54.763a3.477,3.477,0,0,1-2.462,1.02Zm8.028-13.04a3.48,3.48,0,0,0-2.468,1.02l-7.042,7.05a2.088,2.088,0,0,0,0,2.963,2.141,2.141,0,0,0,2.959,0l6.059-6.059a.7.7,0,0,1,.987,0l2.569,2.569a2.092,2.092,0,1,0,2.957-2.961l-3.552-3.56A3.48,3.48,0,0,0,99.966,42.743Zm0,0" transform="translate(-80.38 -37.739)" fill="#14123d"/>
    <path id="Path_3073" data-name="Path 3073" d="M312.166,172.8h-9.654a2.094,2.094,0,0,1-2.094-2.094v-2.792a.7.7,0,0,1,.2-.494l3.7-3.695a1.4,1.4,0,0,1,2.383.987v1.107h5.584a3.49,3.49,0,0,1,3.474,3.829A3.582,3.582,0,0,1,312.166,172.8Zm-10.352-4.6v2.5a.7.7,0,0,0,.7.7h9.654a2.176,2.176,0,0,0,2.2-1.885,2.095,2.095,0,0,0-2.085-2.3H306a.7.7,0,0,1-.7-.7v-1.805Zm13.25,1.38" transform="translate(-273.852 -149.065)" fill="#14123d"/>
    <path id="Path_3074" data-name="Path 3074" d="M187.924,242.579a3.49,3.49,0,0,1-2.464-5.961l4.8-4.8-4.291-4.286a3.49,3.49,0,1,1,4.881-4.988l5.823,5.823a4.892,4.892,0,0,1,0,6.911l-6.287,6.283a3.463,3.463,0,0,1-2.459,1.015Zm.459-19.658c-.07,0-.14,0-.215.011a2.085,2.085,0,0,0-1.551.948,2.135,2.135,0,0,0,.338,2.667l4.781,4.781a.7.7,0,0,1,0,.987l-5.291,5.291a2.088,2.088,0,0,0,0,2.963,2.142,2.142,0,0,0,2.958,0l6.283-6.282a3.5,3.5,0,0,0,0-4.934l-5.822-5.822a2.088,2.088,0,0,0-1.484-.609Zm0,0" transform="translate(-167.989 -202.196)" fill="#14123d"/>
    <path id="Path_3075" data-name="Path 3075" d="M338.7,12.565a6.283,6.283,0,1,1,6.283-6.283A6.283,6.283,0,0,1,338.7,12.565Zm0-11.169a4.886,4.886,0,1,0,4.886,4.886A4.886,4.886,0,0,0,338.7,1.4Zm0,0" transform="translate(-303.059)" fill="#14123d"/>
  </g>
</svg>
