<svg id="scale" xmlns="http://www.w3.org/2000/svg" width="33.705" height="37.438" viewBox="0 0 33.705 37.438">
  <path id="Path_2280" data-name="Path 2280" d="M30.063,6.24H26.147a9.345,9.345,0,0,0-17.628,0H4.6A3.879,3.879,0,0,0,1.637,7.656,4.949,4.949,0,0,0,.549,11.649L3.968,33.614a4.269,4.269,0,0,0,4.056,3.823H26.643A4.271,4.271,0,0,0,30.7,33.615L34.119,11.65a4.949,4.949,0,0,0-1.088-3.994A3.879,3.879,0,0,0,30.063,6.24ZM24.179,29.431c.308,1.846.527,3.414.1,3.921-.2.232-.64.344-1.355.344-1.3,0-2.769,0-3.358-.819-.508-.7-.437-2.042.206-3.976a24.271,24.271,0,0,0,.785-10.765,9.4,9.4,0,0,0,4.968-4.256,8.175,8.175,0,0,1,1.7,1.364,3.174,3.174,0,0,1,.757,3.82c-.479.958-1,1.836-1.507,2.683C25.037,24.161,23.681,26.44,24.179,29.431ZM17.333,1.248A8.112,8.112,0,0,1,19.755,17.1h-.017c-.015,0-.025.012-.04.016a8.084,8.084,0,0,1-4.73,0c-.014,0-.025-.013-.04-.016h-.017A8.112,8.112,0,0,1,17.333,1.248ZM14.9,28.9c.645,1.934.714,3.272.206,3.976-.59.819-2.06.819-3.358.819-.715,0-1.158-.112-1.355-.344-.429-.506-.209-2.075.1-3.921.5-2.991-.858-5.27-2.295-7.682-.505-.849-1.028-1.727-1.507-2.683C5.375,16.448,8.1,14.507,9.142,13.88a9.4,9.4,0,0,0,4.969,4.258A24.274,24.274,0,0,0,14.9,28.9ZM32.885,11.46,29.465,33.425a3.036,3.036,0,0,1-2.822,2.767H8.023A3.036,3.036,0,0,1,5.2,33.425L1.782,11.46a3.756,3.756,0,0,1,.8-3A2.65,2.65,0,0,1,4.6,7.488H8.16a9.286,9.286,0,0,0,.454,5.255,9.452,9.452,0,0,0-2.087,1.652,4.371,4.371,0,0,0-.959,5.228c.5,1,1.034,1.9,1.551,2.765,1.43,2.4,2.558,4.3,2.135,6.837-.409,2.455-.6,4.011.181,4.933a2.9,2.9,0,0,0,2.308.786c1.518,0,3.407,0,4.368-1.337.766-1.061.754-2.731-.035-5.1a22.864,22.864,0,0,1-.76-10.011,9.168,9.168,0,0,0,4.027,0,22.868,22.868,0,0,1-.76,10.011c-.789,2.371-.8,4.037-.035,5.1.968,1.337,2.856,1.337,4.374,1.337a2.9,2.9,0,0,0,2.309-.786c.781-.922.59-2.479.18-4.933-.423-2.54.706-4.436,2.135-6.837.517-.868,1.051-1.766,1.551-2.765a4.369,4.369,0,0,0-.959-5.228,9.451,9.451,0,0,0-2.087-1.652,9.288,9.288,0,0,0,.453-5.255h3.557a2.651,2.651,0,0,1,2.019.98A3.755,3.755,0,0,1,32.885,11.46Zm0,0" transform="translate(-0.481)" fill="#3fa500"/>
  <path id="Path_2281" data-name="Path 2281" d="M223.026,36a.624.624,0,0,0,.624-.624v-.624a.624.624,0,1,0-1.248,0v.624A.624.624,0,0,0,223.026,36Zm0,0" transform="translate(-206.174 -31.633)" fill="#3fa500"/>
  <path id="Path_2282" data-name="Path 2282" d="M180.163,47.085a.624.624,0,0,0,.541.312.614.614,0,0,0,.312-.084.624.624,0,0,0,.229-.852l-.312-.54a.624.624,0,0,0-1.081.624Zm0,0" transform="translate(-166.659 -42.277)" fill="#3fa500"/>
  <path id="Path_2283" data-name="Path 2283" d="M148.858,77.986l.54.312a.624.624,0,0,0,.624-1.081l-.54-.312a.624.624,0,0,0-.624,1.081Zm0,0" transform="translate(-137.722 -71.205)" fill="#3fa500"/>
  <path id="Path_2284" data-name="Path 2284" d="M289.266,159.052l.54.312a.624.624,0,0,0,.624-1.081l-.54-.312a.624.624,0,0,0-.624,1.081Zm0,0" transform="translate(-267.862 -146.344)" fill="#3fa500"/>
  <path id="Path_2285" data-name="Path 2285" d="M137.691,120.713h.624a.624.624,0,1,0,0-1.248h-.624a.624.624,0,1,0,0,1.248Zm0,0" transform="translate(-127.079 -110.729)" fill="#3fa500"/>
  <path id="Path_2286" data-name="Path 2286" d="M299.2,120.089a.624.624,0,0,0,.624.624h.624a.624.624,0,0,0,0-1.248h-.624A.624.624,0,0,0,299.2,120.089Zm0,0" transform="translate(-277.355 -110.729)" fill="#3fa500"/>
  <path id="Path_2287" data-name="Path 2287" d="M149.309,157.971l-.54.312a.624.624,0,1,0,.624,1.081l.54-.312a.624.624,0,0,0-.624-1.081Zm0,0" transform="translate(-137.633 -146.344)" fill="#3fa500"/>
  <path id="Path_2288" data-name="Path 2288" d="M289.586,78.33a.617.617,0,0,0,.312-.084l.54-.312a.624.624,0,1,0-.624-1.081l-.54.312a.624.624,0,0,0,.312,1.164Zm0,0" transform="translate(-267.867 -71.154)" fill="#3fa500"/>
  <path id="Path_2289" data-name="Path 2289" d="M261.122,47.223a.613.613,0,0,0,.312.084.624.624,0,0,0,.541-.312l.312-.54a.624.624,0,1,0-1.081-.624l-.312.54A.624.624,0,0,0,261.122,47.223Zm0,0" transform="translate(-241.774 -42.187)" fill="#3fa500"/>
  <path id="Path_2290" data-name="Path 2290" d="M196.8,85.533a.624.624,0,0,0,.624.624h3.744a.624.624,0,0,0,0-1.248h-1.248V77.421a.624.624,0,0,0-1.248,0v7.488h-1.248A.624.624,0,0,0,196.8,85.533Zm0,0" transform="translate(-182.445 -71.181)" fill="#3fa500"/>
</svg>
