<svg id="Group_10653" data-name="Group 10653" xmlns="http://www.w3.org/2000/svg" width="25.545" height="22.011" viewBox="0 0 25.545 22.011">
  <g id="Group_10652" data-name="Group 10652" transform="translate(0 0)">
    <path id="Path_2977" data-name="Path 2977" d="M25.521,44.819l-2.944-9.059a.5.5,0,0,0-.629-.32l-21.6,7.02a.5.5,0,0,0-.32.629l1.394,4.288c0,.008,0,.017,0,.025v9.526a.5.5,0,0,0,.5.5H24.631a.5.5,0,0,0,.5-.5V47.4a.5.5,0,0,0-.5-.5H20.724L25.2,45.448A.5.5,0,0,0,25.521,44.819ZM24.132,47.9v8.528H2.415V47.9H5.178v5.558a.5.5,0,0,0,1,0V47.9H24.132Zm-6.637-1H2.313L1.128,43.254l2.63-.855,1.006,3.057a.5.5,0,0,0,.948-.312l-1-3.054,17.075-5.549,2.636,8.11Z" transform="translate(0 -35.415)" fill="#12133a"/>
    <path id="Path_2978" data-name="Path 2978" d="M155.145,95.283a.5.5,0,0,0-.629-.32L141.508,99.19a.5.5,0,1,0,.308.949l13.008-4.227A.5.5,0,0,0,155.145,95.283Z" transform="translate(-134.12 -91.968)" fill="#12133a"/>
    <path id="Path_2979" data-name="Path 2979" d="M364.993,133.027l2.462-.8a.5.5,0,1,0-.308-.949l-2.462.8a.5.5,0,1,0,.308.949Z" transform="translate(-346.162 -126.472)" fill="#12133a"/>
    <path id="Path_2980" data-name="Path 2980" d="M418.675,195.479a.5.5,0,0,0,.629.32l.779-.253a.5.5,0,1,0-.308-.949l-.779.253A.5.5,0,0,0,418.675,195.479Z" transform="translate(-397.763 -186.631)" fill="#12133a"/>
    <path id="Path_2981" data-name="Path 2981" d="M369.279,211.006l-.779.253a.5.5,0,1,0,.308.949l.779-.253a.5.5,0,0,0-.308-.949Z" transform="translate(-349.786 -202.222)" fill="#12133a"/>
    <path id="Path_2982" data-name="Path 2982" d="M157.863,186.35l-4.553,1.48a.5.5,0,1,0,.308.949l4.553-1.48a.5.5,0,1,0-.308-.949Z" transform="translate(-145.333 -178.796)" fill="#12133a"/>
    <path id="Path_2983" data-name="Path 2983" d="M104.287,420.364a.5.5,0,0,0-.5.5v.2a.5.5,0,0,0,1,0v-.2A.5.5,0,0,0,104.287,420.364Z" transform="translate(-98.61 -401.158)" fill="#12133a"/>
    <path id="Path_2984" data-name="Path 2984" d="M161.554,313.162a.5.5,0,0,0,.5.5h13.678a.5.5,0,0,0,0-1H162.053A.5.5,0,0,0,161.554,313.162Z" transform="translate(-153.494 -298.83)" fill="#12133a"/>
    <path id="Path_2985" data-name="Path 2985" d="M386.9,350.847h-2.589a.5.5,0,1,0,0,1H386.9a.5.5,0,1,0,0-1Z" transform="translate(-364.661 -335.109)" fill="#12133a"/>
    <path id="Path_2986" data-name="Path 2986" d="M420.6,417.427h-.819a.5.5,0,0,0,0,1h.819a.5.5,0,1,0,0-1Z" transform="translate(-398.362 -398.367)" fill="#12133a"/>
    <path id="Path_2987" data-name="Path 2987" d="M367.505,417.427h-.819a.5.5,0,1,0,0,1h.819a.5.5,0,0,0,0-1Z" transform="translate(-347.917 -398.367)" fill="#12133a"/>
    <path id="Path_2988" data-name="Path 2988" d="M166.841,350.847h-4.787a.5.5,0,1,0,0,1h4.787a.5.5,0,1,0,0-1Z" transform="translate(-153.495 -335.109)" fill="#12133a"/>
  </g>
</svg>
