<svg id="raindrop" xmlns="http://www.w3.org/2000/svg" width="26.176" height="36.167" viewBox="0 0 26.176 36.167">
  <g id="Group_9900" data-name="Group 9900" transform="translate(0 0)">
    <g id="Group_9899" data-name="Group 9899" transform="translate(0 0)">
      <path id="Path_2277" data-name="Path 2277" d="M73.961,8.848a63.618,63.618,0,0,1-4.866-7.631A2.215,2.215,0,0,0,67.14,0a2.149,2.149,0,0,0-1.954,1.217A70.492,70.492,0,0,1,60.541,8.7C57.26,13.456,54.2,17.917,54.2,22.894c0,7.705,5.419,13.272,12.9,13.272A12.991,12.991,0,0,0,80.376,22.894C80.376,17.954,77.242,13.53,73.961,8.848ZM67.1,34.692c-6.636,0-11.429-4.977-11.429-11.8,0-4.5,2.949-8.811,6.046-13.346A70.261,70.261,0,0,0,66.477,1.88a.746.746,0,0,1,1.327,0A66.669,66.669,0,0,0,72.781,9.7c3.134,4.5,6.12,8.737,6.12,13.2A11.557,11.557,0,0,1,67.1,34.692Z" transform="translate(-54.2 0)" fill="#0a83af"/>
      <path id="Path_2278" data-name="Path 2278" d="M108.317,116.355a.756.756,0,0,0-1.032.184,56.012,56.012,0,0,0-3.8,6.378.754.754,0,0,0,.369,1,1.077,1.077,0,0,0,.332.074.734.734,0,0,0,.664-.406,47.7,47.7,0,0,1,3.687-6.157A.81.81,0,0,0,108.317,116.355Z" transform="translate(-98.879 -105.516)" fill="#0a83af"/>
      <path id="Path_2279" data-name="Path 2279" d="M91.4,208.3a.748.748,0,0,0-.959.406,7.648,7.648,0,0,0-.369,1.217.776.776,0,0,0,.59.885h.147a.786.786,0,0,0,.737-.59,5.1,5.1,0,0,1,.295-1A.722.722,0,0,0,91.4,208.3Z" transform="translate(-86.758 -189.054)" fill="#0a83af"/>
    </g>
  </g>
</svg>
