<svg xmlns="http://www.w3.org/2000/svg" width="17.334" height="17.334" viewBox="0 0 17.334 17.334">
  <g id="icon" transform="translate(0.5 0.5)">
    <path id="Path_93" data-name="Path 93" d="M13.272,0H3.063A3.062,3.062,0,0,0,0,3.063V13.272a3.062,3.062,0,0,0,3.063,3.063H13.272a3.062,3.062,0,0,0,3.063-3.063V3.063A3.062,3.062,0,0,0,13.272,0ZM11.308,7.539H5.026L2.513,4.4A7.285,7.285,0,0,1,8.167,1.885,7.285,7.285,0,0,1,13.821,4.4Z" fill="rgba(112,112,112,0)" stroke="#707070" stroke-width="1" stroke-dasharray="2 0"/>
    <path id="Path_94" data-name="Path 94" d="M14.894,9l.989-3.994L13.02,9Z" transform="translate(-5.501 -1.966)" fill="rgba(112,112,112,0)" stroke="#707070" stroke-width="1" stroke-dasharray="2 0"/>
  </g>
</svg>
